<?xml version="1.0" standalone="no"?>
<!DOCTYPE svg PUBLIC "-//W3C//DTD SVG 20010904//EN"
 "http://www.w3.org/TR/2001/REC-SVG-20010904/DTD/svg10.dtd">
<svg version="1.0" xmlns="http://www.w3.org/2000/svg"
 width="1024.000000pt" height="1024.000000pt" viewBox="0 0 1024.000000 1024.000000"
 preserveAspectRatio="xMidYMid meet">

<g transform="translate(0.000000,1024.000000) scale(0.100000,-0.100000)"
fill="#000000" stroke="none">
<path d="M329 10086 c-57 -20 -96 -53 -118 -99 l-21 -43 2 -4786 3 -4786 31
-38 c16 -21 43 -47 58 -58 l27 -21 4785 -3 c4689 -2 4785 -2 4822 17 47 24 77
56 97 103 13 34 15 524 15 4800 0 4585 -1 4764 -19 4803 -23 51 -79 101 -128
114 -61 17 -9507 14 -9554 -3z m9449 -4913 l-3 -4668 -4667 -3 -4668 -2 0
4670 0 4670 4670 0 4670 0 -2 -4667z"/>
<path d="M4091 7452 c-47 -23 -62 -46 -127 -192 -183 -408 -239 -534 -404
-900 -198 -439 -204 -459 -161 -519 44 -62 133 -80 196 -41 33 20 49 49 132
245 l39 90 384 0 384 0 43 -100 c103 -235 119 -255 203 -255 80 0 143 62 142
139 -1 24 -55 157 -167 406 -92 204 -195 433 -230 510 -171 384 -259 572 -274
589 -19 23 -72 46 -103 46 -13 0 -38 -8 -57 -18z m183 -744 c65 -145 121 -269
123 -275 4 -10 -49 -13 -247 -13 -236 0 -252 1 -245 18 23 62 240 532 245 532
3 0 59 -118 124 -262z"/>
<path d="M7835 7456 c-16 -7 -38 -22 -48 -33 -9 -11 -164 -345 -342 -743 -341
-759 -343 -766 -310 -830 32 -62 129 -89 195 -55 36 19 39 25 116 200 l61 140
384 0 383 0 66 -149 c78 -176 104 -206 178 -206 53 0 101 25 128 65 39 59 33
73 -256 715 -150 333 -297 659 -326 724 -60 132 -74 152 -121 172 -40 17 -69
17 -108 0z m178 -743 c64 -142 119 -266 122 -275 7 -17 -9 -18 -245 -18 -198
0 -251 3 -247 13 25 64 243 537 247 537 4 0 59 -116 123 -257z"/>
<path d="M1613 7438 c-82 -57 -81 -172 1 -231 30 -21 41 -22 268 -25 l237 -3
3 -653 c3 -609 4 -654 21 -679 54 -83 174 -88 232 -9 19 26 20 45 23 684 l2
657 258 3 c233 3 260 5 285 22 31 21 67 83 67 115 0 39 -31 96 -63 119 l-33
22 -635 0 -634 0 -32 -22z"/>
<path d="M5434 7442 c-66 -42 -64 -12 -64 -816 0 -799 -2 -772 61 -817 34 -24
37 -24 305 -27 239 -3 283 -1 369 17 300 61 540 284 637 591 20 66 23 95 23
235 0 138 -3 170 -23 232 -73 232 -230 418 -437 518 -155 75 -170 78 -525 82
-297 4 -317 3 -346 -15z m641 -275 c165 -47 289 -150 364 -303 154 -314 -30
-701 -374 -789 -42 -11 -111 -15 -237 -15 l-178 0 0 566 0 567 188 -6 c116 -3
206 -11 237 -20z"/>
<path d="M5527 4626 c-48 -18 -62 -29 -81 -70 -14 -30 -16 -119 -16 -783 0
-711 1 -750 19 -783 10 -19 34 -44 52 -55 32 -19 55 -20 369 -23 196 -2 367 1
413 7 195 26 356 168 412 364 24 82 17 231 -14 309 -32 83 -99 168 -168 214
l-59 40 28 44 c74 117 93 265 50 400 -59 183 -216 315 -405 340 -118 15 -553
12 -600 -4z m649 -311 c131 -82 134 -269 6 -360 l-44 -30 -214 -3 -214 -3 0
216 0 216 208 -3 209 -3 49 -30z m141 -710 c73 -37 106 -89 111 -175 4 -73 -9
-112 -57 -163 -56 -61 -60 -62 -373 -65 l-288 -3 0 215 0 216 278 0 c278 0
278 0 329 -25z"/>
<path d="M7551 4624 c-163 -35 -303 -140 -362 -270 -82 -180 -56 -369 70 -506
96 -104 226 -165 450 -207 122 -24 229 -66 273 -108 39 -37 62 -103 54 -154
-19 -117 -98 -186 -244 -211 -151 -25 -313 24 -434 132 -32 28 -71 55 -88 60
-63 18 -140 -30 -160 -100 -16 -56 4 -108 63 -164 157 -148 328 -216 542 -216
236 0 400 79 507 244 103 159 106 390 7 539 -45 68 -130 140 -213 180 -85 42
-111 50 -288 87 -234 48 -318 105 -318 215 0 130 124 213 306 203 97 -5 176
-39 262 -112 64 -55 93 -64 146 -45 56 19 86 66 86 133 0 62 -14 84 -97 158
-153 136 -356 187 -562 142z"/>
<path d="M2183 4580 c-72 -44 -68 7 -71 -798 -2 -477 1 -736 8 -762 6 -22 25
-51 45 -69 l36 -31 357 0 c336 0 359 1 389 20 94 57 80 202 -24 246 -25 11
-93 14 -283 14 l-250 0 0 651 c0 636 0 652 -20 684 -38 62 -126 83 -187 45z"/>
<path d="M4072 4580 c-25 -15 -43 -41 -69 -98 -196 -429 -617 -1374 -623
-1400 -30 -125 145 -222 236 -130 12 13 52 91 87 173 l65 150 382 0 382 0 68
-153 c38 -84 76 -162 86 -173 61 -67 208 -25 233 67 13 47 3 78 -107 319 -92
204 -435 965 -499 1110 -20 44 -42 89 -49 99 -39 57 -130 74 -192 36z m203
-736 c66 -146 122 -270 123 -275 2 -5 -101 -9 -248 -9 -198 0 -251 3 -247 13
24 61 243 537 247 537 3 0 59 -120 125 -266z"/>
</g>
</svg>
